<svg xmlns="http://www.w3.org/2000/svg" xmlns:xlink="http://www.w3.org/1999/xlink" width="2000" zoomAndPan="magnify" viewBox="0 0 1500 1499.999933" height="2000" preserveAspectRatio="xMidYMid meet" version="1.0"><defs><g/><clipPath id="d1ff47107c"><rect x="0" width="639" y="0" height="1500"/></clipPath><clipPath id="d1ae29fb69"><path d="M 0.121094 441 L 778 441 L 778 1143 L 0.121094 1143 Z M 0.121094 441 " clip-rule="nonzero"/></clipPath><clipPath id="4817fb1d86"><rect x="0" width="788" y="0" height="1500"/></clipPath></defs><g transform="matrix(1, 0, 0, 1, 745, 0.000000000000112861)"><g clip-path="url(#d1ff47107c)"><g fill="#ffffff" fill-opacity="1"><g transform="translate(29.220726, 1118.186685)"><g><path d="M 530.800781 -282.925781 L 463.734375 24.207031 L 49.308594 24.207031 C 39.933594 24.207031 30.710938 21.417969 21.636719 15.832031 L 21.070312 15.484375 L 20.519531 15.101562 C 13.878906 10.507812 7.96875 5.359375 2.785156 -0.34375 C -2.621094 -6.351562 -7.039062 -13.351562 -10.464844 -21.34375 L 12.328125 -31.109375 L -9.441406 -19.238281 C -14.664062 -28.8125 -16.292969 -38.5 -14.335938 -48.300781 L 123.277344 -676.359375 L 537.6875 -676.359375 C 547.0625 -676.359375 556.285156 -673.566406 565.355469 -667.984375 L 565.925781 -667.632812 L 566.476562 -667.253906 C 573.113281 -662.65625 579.027344 -657.507812 584.210938 -651.808594 L 584.644531 -651.328125 L 585.054688 -650.828125 C 589.90625 -644.894531 593.949219 -638.429688 597.179688 -631.429688 L 574.667969 -621.039062 L 596.433594 -632.914062 C 601.65625 -623.339844 603.289062 -613.652344 601.328125 -603.851562 L 549.121094 -366.136719 L 359.910156 -483.046875 L 370.863281 -531.421875 L 395.046875 -525.945312 L 395.046875 -501.152344 L 278.824219 -501.152344 L 278.824219 -525.945312 L 303.035156 -520.605469 L 271.152344 -376.121094 L 128.550781 -376.121094 L 128.550781 -400.917969 L 146.765625 -417.738281 L 254.726562 -300.835938 L 215.589844 -120.933594 L 191.359375 -126.203125 L 191.359375 -151 L 307.585938 -151 L 307.585938 -126.203125 L 283.359375 -131.484375 L 310.359375 -255.339844 L 334.585938 -250.058594 L 334.585938 -225.265625 L 297.882812 -225.265625 L 136.59375 -400.472656 L 426.84375 -400.472656 L 533.738281 -296.375 Z M 482.351562 -293.503906 L 506.574219 -288.214844 L 489.277344 -270.449219 L 399.46875 -357.914062 L 416.765625 -375.675781 L 416.765625 -350.882812 L 193.121094 -350.882812 L 193.121094 -375.675781 L 211.363281 -392.46875 L 327 -266.851562 L 308.757812 -250.058594 L 308.757812 -274.855469 L 365.371094 -274.855469 L 327.558594 -101.410156 L 160.589844 -101.410156 L 203.527344 -298.769531 L 227.753906 -293.496094 L 209.539062 -276.675781 L 71.902344 -425.710938 L 251.234375 -425.710938 L 251.234375 -400.917969 L 227.019531 -406.261719 L 258.902344 -550.742188 L 426.082031 -550.742188 L 412.1875 -489.359375 L 388.003906 -494.835938 L 401.035156 -515.929688 L 545.4375 -426.707031 L 532.402344 -405.613281 L 508.1875 -410.933594 L 552.703125 -613.574219 C 552.460938 -612.367188 552.445312 -611.207031 552.660156 -610.089844 C 552.75 -609.597656 552.832031 -609.289062 552.898438 -609.167969 L 552.503906 -609.894531 L 552.15625 -610.648438 C 550.6875 -613.824219 548.859375 -616.75 546.671875 -619.425781 L 565.863281 -635.128906 L 547.515625 -618.449219 C 544.871094 -621.355469 541.78125 -624.035156 538.246094 -626.480469 L 552.363281 -646.867188 L 539.367188 -625.75 C 538.535156 -626.261719 537.851562 -626.605469 537.320312 -626.773438 L 537.25 -626.800781 C 537.375 -626.777344 537.519531 -626.769531 537.6875 -626.769531 L 143.226562 -626.769531 L 143.226562 -651.5625 L 167.445312 -646.257812 L 34.292969 -38.574219 C 34.535156 -39.78125 34.546875 -40.945312 34.335938 -42.058594 C 34.242188 -42.550781 34.160156 -42.859375 34.09375 -42.984375 L 34.65625 -41.953125 L 35.117188 -40.878906 C 36.386719 -37.914062 37.839844 -35.519531 39.480469 -33.703125 C 42.121094 -30.792969 45.210938 -28.117188 48.746094 -25.667969 L 34.632812 -5.28125 L 47.628906 -26.398438 C 48.460938 -25.886719 49.140625 -25.546875 49.671875 -25.375 L 49.742188 -25.351562 C 49.621094 -25.371094 49.472656 -25.382812 49.308594 -25.382812 L 443.769531 -25.382812 L 443.769531 -0.585938 L 419.542969 -5.875 Z M 482.351562 -293.503906 "/></g></g></g><g fill="#000000" fill-opacity="1"><g transform="translate(29.220726, 1118.186685)"><g><path d="M 506.578125 -288.21875 L 443.765625 -0.59375 L 49.3125 -0.59375 C 44.613281 -0.59375 39.722656 -2.15625 34.640625 -5.28125 C 29.546875 -8.800781 25.039062 -12.710938 21.125 -17.015625 C 17.601562 -20.929688 14.671875 -25.628906 12.328125 -31.109375 C 9.984375 -35.410156 9.203125 -39.519531 9.984375 -43.4375 L 143.234375 -651.5625 L 537.6875 -651.5625 C 542.382812 -651.5625 547.273438 -650 552.359375 -646.875 C 557.453125 -643.351562 561.953125 -639.4375 565.859375 -635.125 C 569.390625 -630.820312 572.328125 -626.128906 574.671875 -621.046875 C 577.015625 -616.742188 577.796875 -612.632812 577.015625 -608.71875 L 532.40625 -405.609375 L 388 -494.84375 L 395.046875 -525.953125 L 278.828125 -525.953125 L 251.234375 -400.921875 L 128.546875 -400.921875 L 227.75 -293.5 L 191.359375 -126.203125 L 307.59375 -126.203125 L 334.59375 -250.0625 L 308.765625 -250.0625 L 193.125 -375.671875 L 416.765625 -375.671875 Z M 506.578125 -288.21875 "/></g></g></g></g></g><g transform="matrix(1, 0, 0, 1, 147, 0.000000000000112861)"><g clip-path="url(#4817fb1d86)"><g clip-path="url(#d1ae29fb69)"><g fill="#ffffff" fill-opacity="1"><g transform="translate(27.562773, 1118.186685)"><g><path d="M 164.359375 24.207031 L -30.195312 24.207031 L 98.457031 -565.863281 L 122.683594 -560.578125 L 102.953125 -545.558594 L 3.378906 -676.359375 L 326.667969 -676.359375 L 385.886719 -385.316406 L 361.589844 -380.371094 L 341.226562 -394.519531 L 537.046875 -676.359375 L 749.296875 -676.359375 L 595.792969 24.207031 L 382.449219 24.207031 L 448.894531 -280.003906 L 473.117188 -274.714844 L 493.867188 -261.140625 L 421.4375 -150.402344 L 419.625 -148.585938 C 417.683594 -146.648438 415.445312 -144.832031 412.910156 -143.140625 L 410.761719 -141.707031 L 408.363281 -140.75 C 410.535156 -141.617188 412.578125 -143.007812 414.488281 -144.917969 C 418.839844 -149.269531 421.015625 -154.578125 421.015625 -160.835938 L 421.015625 -150.566406 L 399.019531 -128.570312 L 248.875 -15.582031 L 206.832031 -262.925781 L 231.277344 -267.082031 L 209.816406 -254.660156 L 203.359375 -265.8125 L 224.820312 -278.234375 L 249.046875 -272.960938 L 184.335938 24.207031 Z M 164.359375 -25.382812 L 164.359375 -0.585938 L 140.132812 -5.863281 L 214.210938 -346.046875 L 254.972656 -275.640625 L 290.941406 -64.027344 L 266.496094 -59.875 L 251.585938 -79.683594 L 367.8125 -167.148438 L 382.71875 -147.335938 L 365.1875 -164.867188 L 372.230469 -171.914062 L 378.6875 -178.371094 L 396.222656 -160.835938 L 371.425781 -160.835938 C 371.425781 -168.269531 374.089844 -174.652344 379.421875 -179.984375 C 382.308594 -182.871094 385.820312 -185.140625 389.949219 -186.792969 L 399.15625 -163.769531 L 385.402344 -184.402344 C 385.214844 -184.277344 384.933594 -184.027344 384.558594 -183.652344 L 402.089844 -166.121094 L 381.339844 -179.691406 L 452.367188 -288.285156 L 497.339844 -269.421875 L 437.46875 4.703125 L 413.242188 -0.585938 L 413.242188 -25.382812 L 575.839844 -25.382812 L 575.839844 -0.585938 L 551.621094 -5.894531 L 694.261719 -656.871094 L 718.480469 -651.5625 L 718.480469 -626.769531 L 550.011719 -626.769531 L 550.011719 -651.5625 L 570.375 -637.414062 L 348.855469 -318.589844 L 282.113281 -646.621094 L 306.410156 -651.5625 L 306.410156 -626.769531 L 53.417969 -626.769531 L 53.417969 -651.5625 L 73.144531 -666.582031 L 149.347656 -566.488281 L 24.8125 4.695312 L 0.585938 -0.585938 L 0.585938 -25.382812 Z M 164.359375 -25.382812 "/></g></g></g></g><g fill="#000000" fill-opacity="1"><g transform="translate(27.562773, 1118.186685)"><g><path d="M 164.359375 -0.59375 L 0.59375 -0.59375 L 122.6875 -560.578125 L 53.421875 -651.5625 L 306.40625 -651.5625 L 361.59375 -380.375 L 550.015625 -651.5625 L 718.484375 -651.5625 L 575.84375 -0.59375 L 413.25 -0.59375 L 473.125 -274.71875 L 402.09375 -166.125 C 401.3125 -165.34375 400.332031 -164.554688 399.15625 -163.765625 C 397.195312 -162.984375 396.21875 -162.007812 396.21875 -160.84375 L 389.765625 -154.375 L 382.71875 -147.34375 L 266.5 -59.875 L 231.28125 -267.078125 L 224.8125 -278.234375 Z M 164.359375 -0.59375 "/></g></g></g></g></g></svg>